<?xml version="1.0" encoding="UTF-8"?>
<svg id="Layer_1" data-name="Layer 1" xmlns="http://www.w3.org/2000/svg" viewBox="0 0 512 269.32">
  <defs>
    <style>
      .cls-1 {
        fill: #fff;
      }

      .cls-2 {
        isolation: isolate;
      }
    </style>
  </defs>
  <path id="Horizon" class="cls-1" d="M256,26.64c136.92,0,248.73,107.49,255.66,242.68.23-4.41.34-8.85.34-13.32C512,114.62,397.38,0,256,0S0,114.62,0,256c0,4.47.12,8.91.34,13.32C7.27,134.12,119.08,26.64,256,26.64Z"/>
  <g class="cls-2">
    <g class="cls-2">
      <g class="cls-2">
        <path class="cls-1" d="M76.3,235.88v-14.4l49.8-50.4h-48.6v-14.4h78v14.4l-49.8,50.4h51v14.4h-80.4Z"/>
        <path class="cls-1" d="M169.9,219.56v-46.56c0-10.88,6.8-16.32,20.4-16.32h56.4v14.4h-48.6c-2.8,0-4.2,1.12-4.2,3.36v43.68c0,2.24,1.4,3.36,4.2,3.36h48.6v14.4h-56.4c-13.6,0-20.4-5.44-20.4-16.32Z"/>
        <path class="cls-1" d="M255.1,171.08v-14.4h88.8v14.4h-32.4v64.8h-24v-64.8h-32.4Z"/>
        <path class="cls-1" d="M355.9,235.88v-14.4h43.8c2.8,0,4.2-1.12,4.2-3.36v-13.08c0-2.24-1.4-3.36-4.2-3.36h-33v-14.4h33c2.8,0,4.2-1.12,4.2-3.36v-9.48c0-2.24-1.4-3.36-4.2-3.36h-43.8v-14.4h51.6c13.6,0,20.4,5.44,20.4,16.32v6.6c0,6.96-2.84,11.72-8.52,14.28,5.68,2.56,8.52,7.32,8.52,14.28v11.4c0,10.88-6.8,16.32-20.4,16.32h-51.6Z"/>
      </g>
    </g>
  </g>
</svg>